ffmpeg started on 2025-06-23 at 21:12:09
Report written to "D:\Convert\FFMetrics\reports\psnr_report-6.txt"
Log level: 32
Command line:
ffmpeg -hide_banner -nostdin -i "G:\\\xc0\xed\xe8\xec\xe5\\[\xd2\xee\xef-4]\\\xcc\xee\xe6\xe5\xf2, \xff \xe2\xf1\xf2\xf0\xe5\xf7\xf3 \xf2\xe5\xe1\xff \xe2 \xef\xee\xe4\xe7\xe5\xec\xe5\xeb\xfc\xe5\\\xd2\xc2-2\\Danmachi_Sword_Oratoria_[12]_[AniLibria_TV]_[HDTV-Rip]_HEVC.mkv" -i "G:\\\xc0\xed\xe8\xec\xe5\\[\xd2\xee\xef-4]\\\xcc\xee\xe6\xe5\xf2, \xff \xe2\xf1\xf2\xf0\xe5\xf7\xf3 \xf2\xe5\xe1\xff \xe2 \xef\xee\xe4\xe7\xe5\xec\xe5\xeb\xfc\xe5\\\xd2\xc2-2\\Danmachi_Sword_Oratoria_[12]_[AniLibria_TV]_[HDTV-Rip].mkv" -lavfi "[0:v]settb=AVTB,setpts=PTS-STARTPTS,format=pix_fmts=yuv420p10,fps=24000/1001,scale=1280:720:flags=bicubic[main];[1:v]settb=AVTB,setpts=PTS-STARTPTS,format=pix_fmts=yuv420p,fps=24000/1001,scale=1280:720:flags=bicubic[ref];[main][ref]psnr=eof_action=endall:stats_file='D\\:/Convert/FFMetrics/logs/psnr_logfile-6.txt'" -f null -
Input #0, matroska,webm, from 'G:\Аниме\[Топ-4]\Может, я встречу тебя в подземелье\ТВ-2\Danmachi_Sword_Oratoria_[12]_[AniLibria_TV]_[HDTV-Rip]_HEVC.mkv':
  Metadata:
    ENCODER         : Lavf61.7.100
  Duration: 00:23:59.73, start: -0.021000, bitrate: 971 kb/s
  Stream #0:0(jpn): Video: hevc (Main 10), yuv420p10le(tv, bt709, progressive), 1280x720 [SAR 1:1 DAR 16:9], 23.98 fps, 23.98 tbr, 1k tbn (default) (forced)
      Metadata:
        title           : [Leopard-Raws]
        ENCODER         : Lavc61.19.100 libx265
        BPS             : 773218
        DURATION        : 00:23:59.729708333
        NUMBER_OF_FRAMES: 34519
        NUMBER_OF_BYTES : 139153090
        _STATISTICS_WRITING_APP: mkvpropedit v66.0.0 ('Josie') 64-bit
        _STATISTICS_WRITING_DATE_UTC: 2025-06-23 11:41:58
        _STATISTICS_TAGS: BPS DURATION NUMBER_OF_FRAMES NUMBER_OF_BYTES
  Stream #0:1(rus): Audio: aac (LC), 48000 Hz, stereo, fltp (default) (forced)
      Metadata:
        title           : Sharon & LeeAnnushka
        ENCODER         : Lavc61.19.100 aac
        BPS             : 194373
        DURATION        : 00:23:59.701000000
        NUMBER_OF_FRAMES: 67487
        NUMBER_OF_BYTES : 34979902
        _STATISTICS_WRITING_APP: mkvpropedit v66.0.0 ('Josie') 64-bit
        _STATISTICS_WRITING_DATE_UTC: 2025-06-23 11:41:58
        _STATISTICS_TAGS: BPS DURATION NUMBER_OF_FRAMES NUMBER_OF_BYTES
  Stream #0:2(rus): Subtitle: ass (ssa) (default) (forced)
      Metadata:
        title           : Надписи
        BPS             : 127
        DURATION        : 00:11:42.950000000
        NUMBER_OF_FRAMES: 35
        NUMBER_OF_BYTES : 11241
        _STATISTICS_WRITING_APP: mkvpropedit v66.0.0 ('Josie') 64-bit
        _STATISTICS_WRITING_DATE_UTC: 2025-06-23 11:41:58
        _STATISTICS_TAGS: BPS DURATION NUMBER_OF_FRAMES NUMBER_OF_BYTES
  Stream #0:3(rus): Subtitle: ass (ssa)
      Metadata:
        title           : Полные
        BPS             : 120
        DURATION        : 00:23:28.000000000
        NUMBER_OF_FRAMES: 289
        NUMBER_OF_BYTES : 21165
        _STATISTICS_WRITING_APP: mkvpropedit v66.0.0 ('Josie') 64-bit
        _STATISTICS_WRITING_DATE_UTC: 2025-06-23 11:41:58
        _STATISTICS_TAGS: BPS DURATION NUMBER_OF_FRAMES NUMBER_OF_BYTES
Input #1, matroska,webm, from 'G:\Аниме\[Топ-4]\Может, я встречу тебя в подземелье\ТВ-2\Danmachi_Sword_Oratoria_[12]_[AniLibria_TV]_[HDTV-Rip].mkv':
  Metadata:
    encoder         : libebml v1.4.2 + libmatroska v1.6.4
    creation_time   : 2025-01-14T16:53:00.000000Z
  Duration: 00:23:59.73, start: 0.000000, bitrate: 3506 kb/s
  Stream #1:0(jpn): Video: h264 (High), yuv420p(tv, bt709, progressive), 1280x720 [SAR 1:1 DAR 16:9], 23.98 fps, 23.98 tbr, 1k tbn (default) (forced)
      Metadata:
        title           : [Leopard-Raws]
        BPS             : 3309365
        DURATION        : 00:23:59.730000000
        NUMBER_OF_FRAMES: 34519
        NUMBER_OF_BYTES : 595574044
        _STATISTICS_WRITING_APP: mkvmerge v66.0.0 ('Josie') 64-bit
        _STATISTICS_WRITING_DATE_UTC: 2025-01-14 16:53:00
        _STATISTICS_TAGS: BPS DURATION NUMBER_OF_FRAMES NUMBER_OF_BYTES
  Stream #1:1(rus): Audio: aac (LC), 48000 Hz, stereo, fltp (default) (forced)
      Metadata:
        title           : Sharon & LeeAnnushka
        BPS             : 192093
        DURATION        : 00:23:59.701000000
        NUMBER_OF_FRAMES: 67486
        NUMBER_OF_BYTES : 34569615
        _STATISTICS_WRITING_APP: mkvmerge v66.0.0 ('Josie') 64-bit
        _STATISTICS_WRITING_DATE_UTC: 2025-01-14 16:53:00
        _STATISTICS_TAGS: BPS DURATION NUMBER_OF_FRAMES NUMBER_OF_BYTES
  Stream #1:2(rus): Subtitle: ass (ssa) (default) (forced)
      Metadata:
        title           : Надписи
        BPS             : 127
        DURATION        : 00:11:42.950000000
        NUMBER_OF_FRAMES: 35
        NUMBER_OF_BYTES : 11241
        _STATISTICS_WRITING_APP: mkvmerge v66.0.0 ('Josie') 64-bit
        _STATISTICS_WRITING_DATE_UTC: 2025-01-14 16:53:00
        _STATISTICS_TAGS: BPS DURATION NUMBER_OF_FRAMES NUMBER_OF_BYTES
  Stream #1:3(rus): Subtitle: ass (ssa)
      Metadata:
        title           : Полные
        BPS             : 120
        DURATION        : 00:23:28.000000000
        NUMBER_OF_FRAMES: 289
        NUMBER_OF_BYTES : 21165
        _STATISTICS_WRITING_APP: mkvmerge v66.0.0 ('Josie') 64-bit
        _STATISTICS_WRITING_DATE_UTC: 2025-01-14 16:53:00
        _STATISTICS_TAGS: BPS DURATION NUMBER_OF_FRAMES NUMBER_OF_BYTES
  Stream #1:4: Attachment: ttf
      Metadata:
        filename        : 9808.ttf
        mimetype        : application/x-truetype-font
  Stream #1:5: Attachment: ttf
      Metadata:
        filename        : 10119.ttf
        mimetype        : application/x-truetype-font
  Stream #1:6: Attachment: ttf
      Metadata:
        filename        : 10323.ttf
        mimetype        : application/x-truetype-font
Stream mapping:
  Stream #0:0 (hevc) -> settb:default
  Stream #1:0 (h264) -> settb:default
  psnr:default -> Stream #0:0 (wrapped_avframe)
  Stream #0:1 -> #0:1 (aac (native) -> pcm_s16le (native))
Output #0, null, to 'pipe:':
  Metadata:
    encoder         : Lavf61.7.100
  Stream #0:0: Video: wrapped_avframe, yuv420p10le(tv, bt709, progressive), 1280x720 [SAR 1:1 DAR 16:9], q=2-31, 200 kb/s, 23.98 fps, 23.98 tbn
      Metadata:
        encoder         : Lavc61.19.100 wrapped_avframe
  Stream #0:1(rus): Audio: pcm_s16le, 48000 Hz, stereo, s16, 1536 kb/s (default) (forced)
      Metadata:
        title           : Sharon & LeeAnnushka
        _STATISTICS_TAGS: BPS DURATION NUMBER_OF_FRAMES NUMBER_OF_BYTES
        BPS             : 194373
        DURATION        : 00:23:59.701000000
        NUMBER_OF_FRAMES: 67487
        NUMBER_OF_BYTES : 34979902
        _STATISTICS_WRITING_APP: mkvpropedit v66.0.0 ('Josie') 64-bit
        _STATISTICS_WRITING_DATE_UTC: 2025-06-23 11:41:58
        encoder         : Lavc61.19.100 pcm_s16le
frame=  506 fps=0.0 q=-0.0 size=N/A time=00:00:21.10 bitrate=N/A speed=40.6x    frame= 1045 fps=1018 q=-0.0 size=N/A time=00:00:43.58 bitrate=N/A speed=42.4x    frame= 1600 fps=1034 q=-0.0 size=N/A time=00:01:06.73 bitrate=N/A speed=43.1x    frame= 2071 fps=1001 q=-0.0 size=N/A time=00:01:26.37 bitrate=N/A speed=41.7x    frame= 2464 fps=955 q=-0.0 size=N/A time=00:01:42.76 bitrate=N/A speed=39.8x    frame= 2851 fps=920 q=-0.0 size=N/A time=00:01:58.91 bitrate=N/A speed=38.4x    frame= 3257 fps=902 q=-0.0 size=N/A time=00:02:15.84 bitrate=N/A speed=37.6x    frame= 3661 fps=888 q=-0.0 size=N/A time=00:02:32.69 bitrate=N/A speed=37.1x    frame= 3978 fps=856 q=-0.0 size=N/A time=00:02:45.91 bitrate=N/A speed=35.7x    frame= 4456 fps=864 q=-0.0 size=N/A time=00:03:05.85 bitrate=N/A speed=  36x    frame= 4822 fps=851 q=-0.0 size=N/A time=00:03:21.11 bitrate=N/A speed=35.5x    frame= 5268 fps=851 q=-0.0 size=N/A time=00:03:39.71 bitrate=N/A speed=35.5x    frame= 5750 fps=858 q=-0.0 size=N/A time=00:03:59.82 bitrate=N/A speed=35.8x    frame= 6165 fps=855 q=-0.0 size=N/A time=00:04:17.13 bitrate=N/A speed=35.7x    frame= 6702 fps=866 q=-0.0 size=N/A time=00:04:39.52 bitrate=N/A speed=36.1x    frame= 7177 fps=870 q=-0.0 size=N/A time=00:04:59.34 bitrate=N/A speed=36.3x    frame= 7635 fps=870 q=-0.0 size=N/A time=00:05:18.44 bitrate=N/A speed=36.3x    frame= 7946 fps=856 q=-0.0 size=N/A time=00:05:31.41 bitrate=N/A speed=35.7x    frame= 8297 fps=847 q=-0.0 size=N/A time=00:05:46.05 bitrate=N/A speed=35.3x    frame= 8692 fps=843 q=-0.0 size=N/A time=00:06:02.52 bitrate=N/A speed=35.2x    frame= 9166 fps=846 q=-0.0 size=N/A time=00:06:22.29 bitrate=N/A speed=35.3x    frame= 9559 fps=843 q=-0.0 size=N/A time=00:06:38.68 bitrate=N/A speed=35.2x    frame= 9862 fps=831 q=-0.0 size=N/A time=00:06:51.32 bitrate=N/A speed=34.7x    frame=10227 fps=826 q=-0.0 size=N/A time=00:07:06.55 bitrate=N/A speed=34.5x    frame=10622 fps=824 q=-0.0 size=N/A time=00:07:23.02 bitrate=N/A speed=34.4x    frame=10992 fps=820 q=-0.0 size=N/A time=00:07:38.45 bitrate=N/A speed=34.2x    frame=11476 fps=824 q=-0.0 size=N/A time=00:07:58.64 bitrate=N/A speed=34.4x    frame=11925 fps=826 q=-0.0 size=N/A time=00:08:17.37 bitrate=N/A speed=34.5x    frame=12502 fps=836 q=-0.0 size=N/A time=00:08:41.43 bitrate=N/A speed=34.9x    frame=13060 fps=844 q=-0.0 size=N/A time=00:09:04.71 bitrate=N/A speed=35.2x    frame=13698 fps=857 q=-0.0 size=N/A time=00:09:31.32 bitrate=N/A speed=35.7x    frame=14244 fps=863 q=-0.0 size=N/A time=00:09:54.09 bitrate=N/A speed=  36x    frame=14797 fps=870 q=-0.0 size=N/A time=00:10:17.15 bitrate=N/A speed=36.3x    frame=15378 fps=877 q=-0.0 size=N/A time=00:10:41.39 bitrate=N/A speed=36.6x    frame=15914 fps=882 q=-0.0 size=N/A time=00:11:03.74 bitrate=N/A speed=36.8x    frame=16358 fps=881 q=-0.0 size=N/A time=00:11:22.26 bitrate=N/A speed=36.7x    frame=16731 fps=877 q=-0.0 size=N/A time=00:11:37.82 bitrate=N/A speed=36.6x    frame=17033 fps=869 q=-0.0 size=N/A time=00:11:50.41 bitrate=N/A speed=36.3x    frame=17497 fps=870 q=-0.0 size=N/A time=00:12:09.77 bitrate=N/A speed=36.3x    frame=17921 fps=869 q=-0.0 size=N/A time=00:12:27.45 bitrate=N/A speed=36.2x    frame=18424 fps=871 q=-0.0 size=N/A time=00:12:48.43 bitrate=N/A speed=36.3x    frame=18846 fps=870 q=-0.0 size=N/A time=00:13:06.03 bitrate=N/A speed=36.3x    frame=19295 fps=870 q=-0.0 size=N/A time=00:13:24.76 bitrate=N/A speed=36.3x    frame=19748 fps=870 q=-0.0 size=N/A time=00:13:43.65 bitrate=N/A speed=36.3x    frame=20204 fps=871 q=-0.0 size=N/A time=00:14:02.67 bitrate=N/A speed=36.3x    frame=20699 fps=872 q=-0.0 size=N/A time=00:14:23.32 bitrate=N/A speed=36.4x    frame=21112 fps=871 q=-0.0 size=N/A time=00:14:40.54 bitrate=N/A speed=36.3x    frame=21544 fps=871 q=-0.0 size=N/A time=00:14:58.56 bitrate=N/A speed=36.3x    frame=21944 fps=869 q=-0.0 size=N/A time=00:15:15.24 bitrate=N/A speed=36.2x    frame=22339 fps=867 q=-0.0 size=N/A time=00:15:31.72 bitrate=N/A speed=36.1x    frame=22746 fps=865 q=-0.0 size=N/A time=00:15:48.69 bitrate=N/A speed=36.1x    frame=23199 fps=865 q=-0.0 size=N/A time=00:16:07.59 bitrate=N/A speed=36.1x    frame=23674 fps=867 q=-0.0 size=N/A time=00:16:27.40 bitrate=N/A speed=36.1x    frame=24151 fps=867 q=-0.0 size=N/A time=00:16:47.29 bitrate=N/A speed=36.2x    frame=24710 fps=871 q=-0.0 size=N/A time=00:17:10.61 bitrate=N/A speed=36.3x    frame=25145 fps=871 q=-0.0 size=N/A time=00:17:28.75 bitrate=N/A speed=36.3x    frame=25602 fps=871 q=-0.0 size=N/A time=00:17:47.81 bitrate=N/A speed=36.3x    frame=26117 fps=873 q=-0.0 size=N/A time=00:18:09.29 bitrate=N/A speed=36.4x    frame=26544 fps=872 q=-0.0 size=N/A time=00:18:27.10 bitrate=N/A speed=36.4x    frame=26912 fps=870 q=-0.0 size=N/A time=00:18:42.45 bitrate=N/A speed=36.3x    frame=27528 fps=875 q=-0.0 size=N/A time=00:19:08.14 bitrate=N/A speed=36.5x    frame=28157 fps=881 q=-0.0 size=N/A time=00:19:34.38 bitrate=N/A speed=36.7x    frame=28725 fps=884 q=-0.0 size=N/A time=00:19:58.07 bitrate=N/A speed=36.9x    frame=29303 fps=888 q=-0.0 size=N/A time=00:20:22.17 bitrate=N/A speed=  37x    frame=29842 fps=890 q=-0.0 size=N/A time=00:20:44.66 bitrate=N/A speed=37.1x    frame=30424 fps=894 q=-0.0 size=N/A time=00:21:08.93 bitrate=N/A speed=37.3x    frame=31042 fps=898 q=-0.0 size=N/A time=00:21:34.71 bitrate=N/A speed=37.5x    frame=31682 fps=904 q=-0.0 size=N/A time=00:22:01.40 bitrate=N/A speed=37.7x    frame=32301 fps=908 q=-0.0 size=N/A time=00:22:27.22 bitrate=N/A speed=37.9x    frame=32941 fps=913 q=-0.0 size=N/A time=00:22:53.91 bitrate=N/A speed=38.1x    frame=33540 fps=916 q=-0.0 size=N/A time=00:23:18.89 bitrate=N/A speed=38.2x    frame=34045 fps=917 q=-0.0 size=N/A time=00:23:39.96 bitrate=N/A speed=38.2x    [Parsed_psnr_10 @ 00000228afb9f340] PSNR y:46.617208 u:48.403093 v:49.014194 average:47.206498 min:39.713635 max:65.151003
[out#0/null @ 00000228ad27c080] video:14832KiB audio:269948KiB subtitle:0KiB other streams:0KiB global headers:0KiB muxing overhead: unknown
frame=34519 fps=920 q=-0.0 Lsize=N/A time=00:23:59.72 bitrate=N/A speed=38.4x    
